<?xml version="1.0" encoding="UTF-8" standalone="no"?>
<!DOCTYPE svg PUBLIC "-//W3C//DTD SVG 1.1//EN"
 "http://www.w3.org/Graphics/SVG/1.1/DTD/svg11.dtd">
<!-- Generated by graphviz version 2.43.0 (0)
 -->
<!-- Title: configuration Pages: 1 -->
<svg width="543pt" height="422pt"
 viewBox="0.00 0.00 543.30 421.80" xmlns="http://www.w3.org/2000/svg" xmlns:xlink="http://www.w3.org/1999/xlink">
<g id="graph0" class="graph" transform="scale(1 1) rotate(0) translate(14.4 407.4)">
<title>configuration</title>
<polygon fill="white" stroke="transparent" points="-14.4,14.4 -14.4,-407.4 528.9,-407.4 528.9,14.4 -14.4,14.4"/>
<!-- file -->
<g id="node1" class="node">
<title>file</title>
<polygon fill="#f3f4f5" stroke="#454b52" points="228.5,-393 31.5,-393 31.5,-341 228.5,-341 228.5,-393"/>
<text text-anchor="middle" x="130" y="-370.8" font-family="DejaVu Sans" font-size="14.00">JSON на носителе</text>
<text text-anchor="middle" x="130" y="-355.8" font-family="DejaVu Sans" font-size="14.00">сохранённые значения</text>
</g>
<!-- ram -->
<g id="node2" class="node">
<title>ram</title>
<polygon fill="#f3f4f5" stroke="#454b52" points="260,-274 0,-274 0,-222 260,-222 260,-274"/>
<text text-anchor="middle" x="130" y="-251.8" font-family="DejaVu Sans" font-size="14.00">Модель в памяти</text>
<text text-anchor="middle" x="130" y="-236.8" font-family="DejaVu Sans" font-size="14.00">конфигурация · кэш · политика</text>
</g>
<!-- file&#45;&gt;ram -->
<g id="edge1" class="edge">
<title>file&#45;&gt;ram</title>
<path fill="none" stroke="#454b52" d="M126.59,-340.71C125.34,-328.69 124.37,-314.11 125,-301 125.31,-294.55 125.83,-287.66 126.43,-281.08"/>
<polygon fill="#454b52" stroke="#454b52" points="128.87,-281.29 127.1,-274.09 123.99,-280.83 128.87,-281.29"/>
<text text-anchor="middle" x="193.5" y="-304.4" font-family="DejaVu Sans" font-size="12.00">загрузка при запуске</text>
</g>
<!-- ram&#45;&gt;file -->
<g id="edge2" class="edge">
<title>ram&#45;&gt;file</title>
<path fill="none" stroke="#454b52" d="M252.75,-274.04C270.98,-283.53 280.13,-296.47 268,-314 259.61,-326.12 248.02,-335.42 235.08,-342.56"/>
<polygon fill="#454b52" stroke="#454b52" points="233.73,-340.5 228.63,-345.89 235.98,-344.85 233.73,-340.5"/>
<text text-anchor="middle" x="346.5" y="-304.4" font-family="DejaVu Sans" font-size="12.00">отдельное сохранение</text>
</g>
<!-- hw -->
<g id="node3" class="node">
<title>hw</title>
<polygon fill="#e9eef3" stroke="#454b52" points="371.5,-155 166.5,-155 166.5,-103 371.5,-103 371.5,-155"/>
<text text-anchor="middle" x="269" y="-132.8" font-family="DejaVu Sans" font-size="14.00">Оборудование</text>
<text text-anchor="middle" x="269" y="-117.8" font-family="DejaVu Sans" font-size="14.00">применённое состояние</text>
</g>
<!-- ram&#45;&gt;hw -->
<g id="edge3" class="edge">
<title>ram&#45;&gt;hw</title>
<path fill="none" stroke="#454b52" d="M134.01,-221.68C137.23,-208.51 142.94,-192.91 153,-182 161.58,-172.69 172.14,-164.94 183.37,-158.52"/>
<polygon fill="#454b52" stroke="#454b52" points="184.69,-160.59 189.66,-155.09 182.34,-156.29 184.69,-160.59"/>
<text text-anchor="middle" x="254.5" y="-185.4" font-family="DejaVu Sans" font-size="12.00">операция сервиса / применение</text>
</g>
<!-- note -->
<g id="node5" class="node">
<title>note</title>
<text text-anchor="middle" x="269" y="-27.4" font-family="DejaVu Sans" font-size="12.00">Ошибка сохранения не отменяет уже применённое изменение.</text>
<text text-anchor="middle" x="269" y="-14.4" font-family="DejaVu Sans" font-size="12.00">Прямая замена JSON не перечитывает модель работающего сервиса.</text>
</g>
<!-- hw&#45;&gt;note -->
<!-- direct -->
<g id="node4" class="node">
<title>direct</title>
<polygon fill="#f3f4f5" stroke="#454b52" points="514.5,-274 303.5,-274 303.5,-222 514.5,-222 514.5,-274"/>
<text text-anchor="middle" x="409" y="-251.8" font-family="DejaVu Sans" font-size="14.00">Прямой MMIO</text>
<text text-anchor="middle" x="409" y="-236.8" font-family="DejaVu Sans" font-size="14.00">диагностический доступ</text>
</g>
<!-- direct&#45;&gt;hw -->
<g id="edge4" class="edge">
<title>direct&#45;&gt;hw</title>
<path fill="none" stroke="#454b52" stroke-dasharray="5,2" d="M394.48,-221.82C386.14,-208.84 374.79,-193.39 362,-182 352.32,-173.39 340.98,-165.6 329.61,-158.82"/>
<polygon fill="#454b52" stroke="#454b52" points="330.58,-156.55 323.3,-155.16 328.13,-160.79 330.58,-156.55"/>
<text text-anchor="middle" x="419.5" y="-185.4" font-family="DejaVu Sans" font-size="12.00">обход модели</text>
</g>
</g>
</svg>
