<?xml version="1.0" encoding="UTF-8" standalone="no"?>
<!DOCTYPE svg PUBLIC "-//W3C//DTD SVG 1.1//EN"
 "http://www.w3.org/Graphics/SVG/1.1/DTD/svg11.dtd">
<!-- Generated by graphviz version 2.43.0 (0)
 -->
<!-- Title: storage Pages: 1 -->
<svg width="802pt" height="612pt"
 viewBox="0.00 0.00 801.80 611.80" xmlns="http://www.w3.org/2000/svg" xmlns:xlink="http://www.w3.org/1999/xlink">
<g id="graph0" class="graph" transform="scale(1 1) rotate(0) translate(14.4 597.4)">
<title>storage</title>
<polygon fill="white" stroke="transparent" points="-14.4,14.4 -14.4,-597.4 787.4,-597.4 787.4,14.4 -14.4,14.4"/>
<g id="clust1" class="cluster">
<title>cluster_fr</title>
<polygon fill="white" stroke="#607487" points="166,-268 166,-575 410,-575 410,-268 166,-268"/>
<text text-anchor="middle" x="288" y="-559" font-family="DejaVu Sans" font-size="15.00">FreeRTOS</text>
</g>
<g id="clust2" class="cluster">
<title>cluster_nt</title>
<polygon fill="white" stroke="#607487" points="511,-148 511,-569 765,-569 765,-148 511,-148"/>
<text text-anchor="middle" x="638" y="-553" font-family="DejaVu Sans" font-size="15.00">Нейтрино</text>
</g>
<!-- fc -->
<g id="node1" class="node">
<title>fc</title>
<polygon fill="#f3f4f5" stroke="#454b52" points="375.5,-530 200.5,-530 200.5,-482 375.5,-482 375.5,-530"/>
<text text-anchor="middle" x="288" y="-509.8" font-family="DejaVu Sans" font-size="14.00">Консоль · HTTP · SSH</text>
<text text-anchor="middle" x="288" y="-494.8" font-family="DejaVu Sans" font-size="14.00">DCP2 FS</text>
</g>
<!-- ff -->
<g id="node2" class="node">
<title>ff</title>
<polygon fill="#f3f4f5" stroke="#454b52" points="369.5,-433 206.5,-433 206.5,-385 369.5,-385 369.5,-433"/>
<text text-anchor="middle" x="288" y="-412.8" font-family="DejaVu Sans" font-size="14.00">fs_devices и FatFs</text>
<text text-anchor="middle" x="288" y="-397.8" font-family="DejaVu Sans" font-size="14.00">flash:/ · sd:/ · sd&#45;pl:/</text>
</g>
<!-- fc&#45;&gt;ff -->
<g id="edge1" class="edge">
<title>fc&#45;&gt;ff</title>
<path fill="none" stroke="#454b52" d="M288,-481.52C288,-469.09 288,-453.69 288,-440.37"/>
<polygon fill="#454b52" stroke="#454b52" points="290.45,-440.21 288,-433.21 285.55,-440.21 290.45,-440.21"/>
<text text-anchor="middle" x="309.5" y="-454.4" font-family="DejaVu Sans" font-size="12.00">файлы</text>
</g>
<!-- fd -->
<g id="node3" class="node">
<title>fd</title>
<polygon fill="#f3f4f5" stroke="#454b52" points="390.5,-336 185.5,-336 185.5,-288 390.5,-288 390.5,-336"/>
<text text-anchor="middle" x="288" y="-315.8" font-family="DejaVu Sans" font-size="14.00">Дисковый слой</text>
<text text-anchor="middle" x="288" y="-300.8" font-family="DejaVu Sans" font-size="14.00">QSPI · PS SD · PL SPI/DMA</text>
</g>
<!-- ff&#45;&gt;fd -->
<g id="edge2" class="edge">
<title>ff&#45;&gt;fd</title>
<path fill="none" stroke="#454b52" d="M288,-384.52C288,-372.09 288,-356.69 288,-343.37"/>
<polygon fill="#454b52" stroke="#454b52" points="290.45,-343.21 288,-336.21 285.55,-343.21 290.45,-343.21"/>
<text text-anchor="middle" x="315" y="-357.4" font-family="DejaVu Sans" font-size="12.00">секторы</text>
</g>
<!-- media -->
<g id="node8" class="node">
<title>media</title>
<polygon fill="#e9eef3" stroke="#454b52" points="334,-121 110,-121 110,-73 334,-73 334,-121"/>
<text text-anchor="middle" x="222" y="-100.8" font-family="DejaVu Sans" font-size="14.00">Носители выбранной ОС</text>
<text text-anchor="middle" x="222" y="-85.8" font-family="DejaVu Sans" font-size="14.00">окно QSPI 8–32 МиБ · PS SD</text>
</g>
<!-- fd&#45;&gt;media -->
<g id="edge6" class="edge">
<title>fd&#45;&gt;media</title>
<path fill="none" stroke="#454b52" d="M274.54,-287.95C264.15,-269.17 250.2,-241.66 242,-216 232.71,-186.94 227.5,-152.41 224.74,-128.23"/>
<polygon fill="#454b52" stroke="#454b52" points="227.16,-127.77 223.96,-121.08 222.29,-128.3 227.16,-127.77"/>
</g>
<!-- pl -->
<g id="node9" class="node">
<title>pl</title>
<polygon fill="#e9eef3" stroke="#454b52" points="490.5,-216 263.5,-216 263.5,-168 490.5,-168 490.5,-216"/>
<text text-anchor="middle" x="377" y="-195.8" font-family="DejaVu Sans" font-size="14.00">Внешняя PL SD (FreeRTOS)</text>
<text text-anchor="middle" x="377" y="-180.8" font-family="DejaVu Sans" font-size="14.00">существующая FAT12/16/32</text>
</g>
<!-- fd&#45;&gt;pl -->
<g id="edge8" class="edge">
<title>fd&#45;&gt;pl</title>
<path fill="none" stroke="#454b52" d="M305.37,-287.97C319.55,-269.17 339.68,-242.48 354.99,-222.19"/>
<polygon fill="#454b52" stroke="#454b52" points="357.11,-223.44 359.37,-216.38 353.2,-220.49 357.11,-223.44"/>
</g>
<!-- nc -->
<g id="node4" class="node">
<title>nc</title>
<polygon fill="#f3f4f5" stroke="#454b52" points="745,-524 531,-524 531,-488 745,-488 745,-524"/>
<text text-anchor="middle" x="638" y="-502.3" font-family="DejaVu Sans" font-size="14.00">Программы ОС · SSH/SFTP</text>
</g>
<!-- nf -->
<g id="node5" class="node">
<title>nf</title>
<polygon fill="#f3f4f5" stroke="#454b52" points="731,-433 535,-433 535,-385 731,-385 731,-433"/>
<text text-anchor="middle" x="633" y="-412.8" font-family="DejaVu Sans" font-size="14.00">DOS&#45;файловая система</text>
<text text-anchor="middle" x="633" y="-397.8" font-family="DejaVu Sans" font-size="14.00">/flash · /sd</text>
</g>
<!-- nc&#45;&gt;nf -->
<g id="edge3" class="edge">
<title>nc&#45;&gt;nf</title>
<path fill="none" stroke="#454b52" d="M637.08,-487.58C636.39,-474.41 635.42,-456.01 634.6,-440.43"/>
<polygon fill="#454b52" stroke="#454b52" points="637.03,-439.91 634.21,-433.05 632.13,-440.17 637.03,-439.91"/>
<text text-anchor="middle" x="656.5" y="-454.4" font-family="DejaVu Sans" font-size="12.00">файлы</text>
</g>
<!-- nl -->
<g id="node6" class="node">
<title>nl</title>
<polygon fill="#f3f4f5" stroke="#454b52" points="710.5,-336 539.5,-336 539.5,-288 710.5,-288 710.5,-336"/>
<text text-anchor="middle" x="625" y="-315.8" font-family="DejaVu Sans" font-size="14.00">devb&#45;loopback</text>
<text text-anchor="middle" x="625" y="-300.8" font-family="DejaVu Sans" font-size="14.00">/dev/qspi0 · /dev/sd0</text>
</g>
<!-- nf&#45;&gt;nl -->
<g id="edge4" class="edge">
<title>nf&#45;&gt;nl</title>
<path fill="none" stroke="#454b52" d="M631.02,-384.52C629.98,-372.09 628.68,-356.69 627.56,-343.37"/>
<polygon fill="#454b52" stroke="#454b52" points="629.98,-342.98 626.95,-336.21 625.1,-343.39 629.98,-342.98"/>
<text text-anchor="middle" x="648" y="-357.4" font-family="DejaVu Sans" font-size="12.00">блоки</text>
</g>
<!-- nd -->
<g id="node7" class="node">
<title>nd</title>
<polygon fill="#f3f4f5" stroke="#454b52" points="665.5,-216 544.5,-216 544.5,-168 665.5,-168 665.5,-216"/>
<text text-anchor="middle" x="605" y="-195.8" font-family="DejaVu Sans" font-size="14.00">bvstk&#45;qspi&#45;fat</text>
<text text-anchor="middle" x="605" y="-180.8" font-family="DejaVu Sans" font-size="14.00">bvstk&#45;sd&#45;raw</text>
</g>
<!-- nl&#45;&gt;nd -->
<g id="edge5" class="edge">
<title>nl&#45;&gt;nd</title>
<path fill="none" stroke="#454b52" d="M621.1,-287.97C617.98,-269.57 613.58,-243.63 610.17,-223.5"/>
<polygon fill="#454b52" stroke="#454b52" points="612.55,-222.87 608.96,-216.38 607.72,-223.69 612.55,-222.87"/>
<text text-anchor="middle" x="660" y="-250.4" font-family="DejaVu Sans" font-size="12.00">псевдофайлы</text>
<text text-anchor="middle" x="660" y="-237.4" font-family="DejaVu Sans" font-size="12.00">устройств</text>
</g>
<!-- nd&#45;&gt;media -->
<g id="edge7" class="edge">
<title>nd&#45;&gt;media</title>
<path fill="none" stroke="#454b52" d="M561,-167.78C545.82,-160.55 528.47,-153.13 512,-148 457.03,-130.88 394.26,-119.14 341.21,-111.37"/>
<polygon fill="#454b52" stroke="#454b52" points="341.4,-108.92 334.13,-110.35 340.7,-113.77 341.4,-108.92"/>
</g>
<!-- note -->
<g id="node10" class="node">
<title>note</title>
<text text-anchor="middle" x="222" y="-14.9" font-family="DejaVu Sans" font-size="12.00">PL SD: автоматическое монтирование sd&#45;pl:/ без форматирования.</text>
</g>
<!-- media&#45;&gt;note -->
</g>
</svg>
